<svg xmlns="http://www.w3.org/2000/svg" viewBox="0 0 32 32" fill="none">
  <rect width="32" height="32" rx="6" fill="#171717"/>
  <path d="M7 8h4v12c0 1.5-.5 2.5-1.5 3S7.5 24 6 24v-3c.8 0 1.3-.1 1.6-.4.3-.3.4-.7.4-1.3V8z" fill="#F59E0B"/>
  <path d="M14 8h5.5c1.5 0 2.6.4 3.4 1.1.7.7 1.1 1.7 1.1 2.9 0 1-.3 1.8-.8 2.4-.3.3-.6.6-1 .8.6.2 1.1.6 1.4 1.1.5.7.7 1.5.7 2.5 0 1.5-.5 2.7-1.3 3.4-.9.8-2.1 1.2-3.7 1.2H14V8zm4 5.8h1.2c.6 0 1-.1 1.3-.4.3-.3.5-.7.5-1.2s-.2-.9-.5-1.2c-.3-.3-.7-.4-1.3-.4H18v3.2zm0 6.2h1.5c.7 0 1.2-.2 1.5-.5.3-.3.5-.8.5-1.4 0-.6-.2-1-.5-1.3-.3-.3-.8-.5-1.5-.5H18V20z" fill="#F59E0B"/>
</svg>
